<?xml version="1.0" encoding="UTF-8"?>
<svg id="Capa_2" data-name="Capa 2" xmlns="http://www.w3.org/2000/svg" viewBox="0 0 899.81 900.75">
  <defs>
    <style>
      .cls-1 {
        fill: #5a91bb;
      }

      .cls-1, .cls-2 {
        stroke-width: 0px;
      }

      .cls-2 {
        fill: #fff;
      }
    </style>
  </defs>
  <g id="Capa_1-2" data-name="Capa 1">
    <g>
      <path class="cls-2" d="m340.97,885.71c.02-98.14.01-196.28.12-294.42,0-3.47-.89-4.47-4.41-4.45-27.83.15-55.65,0-83.48.18-4,.03-4.95-1.13-4.94-5,.13-42.32.14-84.64-.01-126.97-.02-4.1.94-5.32,5.16-5.29,27.49.19,54.99,0,82.48.2,4.13.03,5.23-1.01,5.23-5.18,0-26.99-.84-53.99.81-80.95,2.3-37.47,8.89-73.89,26.89-107.46,20.15-37.57,51.37-61.69,91.23-75.31,22.63-7.73,46-11.6,69.82-13.3,40.63-2.9,80.82.52,120.68,8.27,8.66,1.68,7.5-.21,7.51,8.96.04,37.32-.06,74.65.12,111.97.02,4.29-1.13,5.22-5.29,4.95-24.6-1.59-49.25-2.67-73.83.15-18.08,2.08-35.26,7-49.31,19.47-13.48,11.96-19.61,27.71-22.88,44.91-3.79,19.96-2.8,40.14-2.91,60.27-.04,6.33.16,12.67-.07,18.99-.12,3.24.83,4.32,4.17,4.24,8.66-.22,17.33-.07,25.99-.07,37.32,0,74.65.05,111.97-.07,3.83-.01,4.88.45,4.06,4.8-7.97,42.45-15.66,84.95-23.32,127.46-.66,3.67-1.9,5.03-5.99,5-37.16-.21-74.31-.03-111.47-.24-4.5-.02-5.45,1.19-5.44,5.53.12,101.14.07,202.28.06,303.42-.01,10.21-103.01,1.74-111.21.81-3.33-.38-6.66-.79-9.98-1.23-7.75-1.03-15.48-2.24-23.18-3.63-4.14-.75-17.05-.92-18.59-5.99Z"/>
      <path class="cls-1" d="m899.31,428.56c-.03-12.82-.68-25.6-2.42-38.31-7.51-54.84-24.09-106.7-50.6-155.41-28.29-52-65.19-96.86-110.95-134.29-47.38-38.75-100.5-66.9-159.34-84.04-24.99-7.28-50.4-12.51-76.34-15.05-7.91-.77-15.88-.29-23.76-1.47h-41.99s0,0,0,0h0c-2,0-4,0-6,0h-6c-10.68,1.34-21.47,1.09-32.18,2.54-62.09,8.42-119.98,28.75-173.55,61.15-37.98,22.97-71.82,51.04-101.56,84.1-27.02,30.02-49.67,62.98-67.93,98.94-13.01,25.6-23.3,52.31-31.1,79.95-6.7,23.76-11.55,47.89-14.06,72.47-.81,7.91-.39,15.88-1.53,23.75v53.99c.34.39.51.83.51,1.35-.06,22.25,3.53,44.05,8.05,65.75,9.59,46.07,26.45,89.36,49.82,130.08,24.9,43.38,56.29,81.5,93.89,114.58,29.19,25.68,61.23,47.03,95.81,64.63,17.39,8.84,35.45,16.17,53.83,22.67,10.99,3.89,22.18,7.17,33.49,10.02,2.28.57,4.95,1.9,6.54-1.33.82-2.94.52-5.96.52-8.96.02-92.64.01-185.28.01-277.93q0-12.44-12.44-12.44c-24.66,0-49.32.02-73.98-.02-6.11,0-6.49-.44-6.55-6.54-.05-5.66-.01-11.33-.01-17,0-34.49-.01-68.98.01-103.47,0-6.47.35-6.79,6.75-6.83,7.66-.05,15.33,0,22.99-.01,18.5,0,36.99.07,55.49-.04,6.49-.04,7.54-1.18,7.72-7.57.05-1.67,0-3.33.02-5,.21-28.63-.65-57.27,1.86-85.88,2.49-28.42,7.96-56.09,19.25-82.37,15.2-35.37,39.96-61.98,74.59-78.89,32.31-15.79,67.07-21.73,102.64-23.03,15.78-.58,31.61-.61,47.44.69,20.11,1.65,40.11,3.98,59.94,7.65,7.87,1.46,8.09,1.85,8.09,9.75.01,35.32,0,70.65,0,105.97,0,1.17-.04,2.33-.04,3.5,0,3.01-1.52,4.26-4.42,3.86-3.64-.51-7.29-.84-10.96-.71-15.8.56-31.58-.92-47.4-.12-15.1.77-29.9,2.79-43.95,8.45-17.81,7.18-30.66,19.51-38.09,37.48-6.43,15.54-8.36,31.89-8.96,48.38-.6,16.64-.19,33.32-.11,49.98.03,6.79,1.07,7.73,7.88,7.88,1.67.04,3.33.01,5,.01,42.32,0,84.64-.01,126.97.01,6.37,0,6.66.34,5.54,6.54-7.17,39.68-14.56,79.32-21.81,118.98-1.52,8.33-1.64,8.33-9.94,8.33-34.32,0-68.65,0-102.97,0-10.22,0-10.68.46-10.68,10.71,0,97.14,0,194.28,0,291.42,0,2.49-.21,5.01.62,7.44,1.79,2.96,4.62,2.21,7.18,1.86,67.74-9.31,130.24-32.73,187.4-70.21,32.46-21.28,61.55-46.53,87.51-75.43,24.16-26.89,44.94-56.12,62.01-87.95,19.95-37.2,34.56-76.42,43.39-117.73,4.28-20.03,7.83-40.16,8.47-60.73.16-5.24-.37-10.59.86-15.8v-36.99c-.88-1.01-.49-2.23-.5-3.35Z"/>
    </g>
  </g>
</svg>