<?xml version="1.0" encoding="UTF-8"?>
<svg id="Capa_2" data-name="Capa 2" xmlns="http://www.w3.org/2000/svg" viewBox="0 0 896.32 897.85">
  <defs>
    <style>
      .cls-1 {
        fill: #bda5cf;
        stroke-width: 0px;
      }
    </style>
  </defs>
  <g id="Capa_1-2" data-name="Capa 1">
    <g>
      <path class="cls-1" d="m447.64,897.85c-61.17-.92-122.37-1.12-183.52-2.99-46.5-1.42-91.85-9.92-133.57-31.82-56.6-29.72-92.91-76.51-112.89-136.66C5.46,689.63.62,651.62.44,613.21c-.54-110.09-.64-220.18.04-330.27.27-44.11,5.86-87.76,22.38-129.21C50.43,84.59,101.38,40.72,171.24,17.6,211.84,4.17,253.93.56,296.26.36c101.24-.47,202.49-.49,303.73.01,43.56.22,86.89,3.92,128.67,17.74,76.78,25.39,124.75,78.98,150.06,154.31,11.03,32.83,15.9,66.87,16.15,101.43.73,100.75,1.35,201.5,1.45,302.25.04,37.57-1.14,75.15-8.01,112.31-19.98,108.08-85.39,172.28-190.78,197.88-33.4,8.11-67.55,9.76-101.71,10.06-49.39.43-98.78.11-148.18.11,0,.46,0,.93-.01,1.39Zm369.46-464.55c0-29.49.34-58.98-.08-88.46-.6-41.24-1.51-82.38-8.68-123.28-11.49-65.51-54.3-119.33-126.63-132.03-40.01-7.02-80.51-9.52-121.03-9.9-70.27-.66-140.55-.48-210.83-.26-43.7.14-87.31,1.02-130.6,8.95-58.77,10.76-112.74,48.98-127.93,116.76-8.47,37.77-10.94,76.36-11.38,114.9-.94,82.3-1.46,164.62-.82,246.93.32,41.17,1.71,82.37,12.18,122.82,14.64,56.56,47.62,95.67,104.13,112.59,37.68,11.28,77.01,13.47,115.94,14.22,77.62,1.5,155.29.89,232.93.72,44.19-.1,88.27-.94,132.08-8.89,64.82-11.77,117.94-54.76,130.42-126.49,7.64-43.91,9.64-88.36,10.21-132.83.49-38.57.1-77.16.1-115.73Z"/>
      <path class="cls-1" d="m446.17,678.95c-120.1,2.4-230.98-97.47-231.42-230.1-.4-118.68,96.66-230.98,231.1-231.72,132.27-.73,231.4,109.82,231.19,231.13-.21,121.66-98.91,232.43-230.87,230.69Zm-.33-381.49c-84.9.05-150.09,66.22-151.17,151.04-1.07,84.62,73.78,149.75,151.02,148.94,83.41-.88,151.16-66.69,151.3-148.89.15-84.02-67-151.14-151.15-151.09Z"/>
      <path class="cls-1" d="m686.22,261.48c-28.7-.57-54.07-27-53.54-55.79.52-27.95,27.62-53.73,55.64-52.94,28.24.79,54.01,27.58,53.32,55.42-.7,28.13-27.46,53.87-55.42,53.32Z"/>
    </g>
  </g>
</svg>